<?xml version="1.0" encoding="UTF-8" standalone="no"?>
<!DOCTYPE svg PUBLIC "-//W3C//DTD SVG 1.1//EN" "http://www.w3.org/Graphics/SVG/1.1/DTD/svg11.dtd">
<svg width="100%" height="100%" viewBox="0 0 123 123" version="1.1" xmlns="http://www.w3.org/2000/svg" xmlns:xlink="http://www.w3.org/1999/xlink" xml:space="preserve" xmlns:serif="http://www.serif.com/" style="fill-rule:evenodd;clip-rule:evenodd;stroke-linejoin:round;stroke-miterlimit:2;">
    <g transform="matrix(1,0,0,1,-3595.3,-574.171)">
        <g transform="matrix(1,0,0,1,2938,15.0675)">
            <g transform="matrix(1,0,0,1,-1084.41,160.624)">
                <path d="M1863.95,416.778L1863.95,502.432C1863.95,512.531 1855.75,520.73 1845.65,520.73L1760,520.73C1749.9,520.73 1741.7,512.531 1741.7,502.432L1741.7,416.778C1741.7,406.679 1749.9,398.479 1760,398.479L1845.65,398.479C1855.75,398.479 1863.95,406.679 1863.95,416.778Z" style="fill:rgb(246,246,246);"/>
            </g>
        </g>
        <g transform="matrix(1,0,0,1,2938,15.0675)">
            <g transform="matrix(2.18975,0,0,2.18975,-2956.53,-237.141)">
                <g transform="matrix(40,0,0,40,1690.21,406)">
                </g>
                <text x="1665.78px" y="406px" style="font-family:'Arial-BoldMT', 'Arial', sans-serif;font-weight:700;font-size:40px;fill:rgb(215,215,215);fill-opacity:0.56;">?</text>
            </g>
        </g>
    </g>
</svg>
