<?xml version="1.0" encoding="UTF-8"?>
<svg xmlns="http://www.w3.org/2000/svg" version="1.1" xmlns:xlink="http://www.w3.org/1999/xlink" viewBox="0 0 56 56.11">
  <defs>
    <style>
      .cls-1 {
        fill: #94684e;
        opacity: .5;
      }

      .cls-2 {
        fill: #93684e;
      }

      .cls-3 {
        clip-path: url(#clippath-1);
      }

      .cls-4 {
        opacity: .1;
      }

      .cls-5 {
        clip-path: url(#clippath);
      }

      .cls-6 {
        fill: #ea7a2f;
        opacity: .3;
      }
    </style>
    <clipPath id="clippath">
      <path class="cls-2" d="M35,52.11v-4c7.86,0,17-5.25,17-11.55,0-2.5-1.02-3.64-2.17-4.3-1.55-.9-3.69-.66-5.83.58l-2-3.46c3.43-1.98,7.02-2.2,9.83-.58,2.4,1.39,4.17,4.04,4.17,7.76,0,9.36-10.86,15.55-21,15.55Z"/>
    </clipPath>
    <clipPath id="clippath-1">
      <path class="cls-2" d="M42,25.11c1.5,0,3,1,3,3,0,15-6,23.27-7,25-1,1.73-3,3-5,3H12c-2,0-4-1.27-5-3-1-1.73-7-10-7-25,0-2,1.5-3,3-3h39Z"/>
    </clipPath>
  </defs>
  
  <g>
    <g id="Layer_1">
      <g>
        <g>
          <path class="cls-2" d="M35,52.11v-4c7.86,0,17-5.25,17-11.55,0-2.5-1.02-3.64-2.17-4.3-1.55-.9-3.69-.66-5.83.58l-2-3.46c3.43-1.98,7.02-2.2,9.83-.58,2.4,1.39,4.17,4.04,4.17,7.76,0,9.36-10.86,15.55-21,15.55Z"/>
          <g class="cls-5">
            <rect class="cls-4" x="30.37" y="32.03" width="21.57" height="21.99" transform="translate(-16 26.34) rotate(-30)"/>
            <rect class="cls-4" x="33.5" y="25.11" width="25.5" height="26.33"/>
          </g>
        </g>
        <g>
          <path class="cls-2" d="M42,25.11c1.5,0,3,1,3,3,0,15-6,23.27-7,25-1,1.73-3,3-5,3H12c-2,0-4-1.27-5-3-1-1.73-7-10-7-25,0-2,1.5-3,3-3h39Z"/>
          <g class="cls-3">
            <path class="cls-6" d="M52.28,28.8c-2.82-1.63-6.85-1.4-10.28.58L3.9,51.38-6,25.11l55.28-1.53,3,5.22Z"/>
          </g>
        </g>
        <path class="cls-1" d="M31.85,11.98c3.93,2.27,4.36,5.71.95,7.68l-6.05,3.5c4.26-2.46,3.98-5.08,1.01-6.79l-8.94-5.16c-3.97-2.29-4.4-5.75-.96-7.74l6.01-3.47c-4.27,2.46-3.98,5.08-1.01,6.79l8.99,5.19Z"/>
        <path class="cls-1" d="M18.2,15.31c2.84,1.64,3.15,4.12.69,5.55l-4.37,2.53c3.08-1.78,2.88-3.67.73-4.9l-6.46-3.73c-2.86-1.65-3.18-4.16-.69-5.59l4.34-2.5c-3.08,1.78-2.87,3.67-.73,4.9l6.5,3.75Z"/>
      </g>
    </g>
  </g>
</svg>