<?xml version="1.0" encoding="UTF-8" standalone="no"?>
<!DOCTYPE svg PUBLIC "-//W3C//DTD SVG 1.1//EN" "http://www.w3.org/Graphics/SVG/1.1/DTD/svg11.dtd">
<svg width="100%" height="100%" viewBox="0 0 45 45" version="1.1" xmlns="http://www.w3.org/2000/svg" xmlns:xlink="http://www.w3.org/1999/xlink" xml:space="preserve" xmlns:serif="http://www.serif.com/" style="fill-rule:evenodd;clip-rule:evenodd;stroke-linejoin:round;stroke-miterlimit:2;">
    <g transform="matrix(1,0,0,1,-3667.89,-894.899)">
        <g transform="matrix(1,0,0,1,2938,15.0675)">
            <g transform="matrix(0.0724056,0,0,0.0724056,518.665,858.447)">
                <path d="M3525.43,599.488C3525.43,767.461 3389.25,903.629 3221.28,903.629C3179.29,903.629 3139.28,895.121 3102.89,879.73C2993.73,833.559 2917.14,725.469 2917.14,599.488C2917.14,557.5 2925.65,517.488 2941.04,481.102C2987.21,371.941 3095.3,295.34 3221.28,295.34C3263.27,295.34 3303.28,303.852 3339.67,319.25C3448.83,365.422 3525.43,473.512 3525.43,599.488" style="fill:rgb(15,14,12);fill-rule:nonzero;"/>
            </g>
        </g>
        <g transform="matrix(1,0,0,1,2938,15.0675)">
            <g transform="matrix(0.0724056,0,0,0.0724056,518.665,858.447)">
                <path d="M3221.28,419.25C3172.33,419.25 3166.19,419.461 3146.97,420.328C3127.78,421.211 3114.68,424.262 3103.22,428.711C3091.36,433.32 3081.31,439.48 3071.29,449.5C3061.27,459.52 3055.11,469.57 3050.5,481.422C3046.05,492.891 3043,505.988 3042.13,525.172C3041.25,544.398 3041.04,550.539 3041.04,599.488C3041.04,648.441 3041.25,654.57 3042.13,673.801C3043,692.98 3046.05,706.09 3050.5,717.551C3055.11,729.398 3061.27,739.449 3071.29,749.469C3081.31,759.488 3091.36,765.66 3103.22,770.262C3114.68,774.719 3127.78,777.77 3146.97,778.641C3166.19,779.52 3172.33,779.73 3221.28,779.73C3270.23,779.73 3276.37,779.52 3295.59,778.641C3314.78,777.77 3327.88,774.719 3339.34,770.262C3351.2,765.66 3361.25,759.488 3371.27,749.469C3381.29,739.449 3387.45,729.398 3392.06,717.551C3396.51,706.09 3399.56,692.98 3400.43,673.801C3401.31,654.57 3401.52,648.441 3401.52,599.488C3401.52,550.539 3401.31,544.398 3400.43,525.172C3399.56,505.988 3396.51,492.891 3392.06,481.422C3387.45,469.57 3381.29,459.52 3371.27,449.5C3361.25,439.48 3351.2,433.32 3339.34,428.711C3327.88,424.262 3314.78,421.211 3295.59,420.328C3276.37,419.461 3270.23,419.25 3221.28,419.25ZM3221.28,451.719C3269.41,451.719 3275.11,451.91 3294.11,452.77C3311.69,453.578 3321.23,456.512 3327.58,458.98C3335.99,462.25 3342,466.16 3348.3,472.461C3354.61,478.77 3358.52,484.77 3361.79,493.191C3364.25,499.539 3367.19,509.078 3367.99,526.648C3368.86,545.66 3369.04,551.359 3369.04,599.488C3369.04,647.609 3368.86,653.309 3367.99,672.32C3367.19,689.891 3364.25,699.441 3361.79,705.789C3358.52,714.199 3354.61,720.199 3348.3,726.512C3342,732.82 3335.99,736.719 3327.58,739.988C3321.23,742.461 3311.69,745.398 3294.11,746.199C3275.11,747.07 3269.41,747.25 3221.28,747.25C3173.15,747.25 3167.45,747.07 3148.45,746.199C3130.88,745.398 3121.33,742.461 3114.98,739.988C3106.57,736.719 3100.56,732.82 3094.26,726.512C3087.95,720.199 3084.04,714.199 3080.77,705.789C3078.31,699.441 3075.37,689.891 3074.57,672.32C3073.7,653.309 3073.52,647.609 3073.52,599.488C3073.52,551.359 3073.7,545.66 3074.57,526.66C3075.37,509.078 3078.31,499.539 3080.77,493.191C3084.04,484.77 3087.95,478.77 3094.26,472.461C3100.56,466.16 3106.57,462.25 3114.98,458.98C3121.33,456.512 3130.88,453.578 3148.45,452.77C3167.45,451.91 3173.15,451.719 3221.28,451.719" style="fill:rgb(254,254,254);fill-rule:nonzero;"/>
            </g>
        </g>
        <g transform="matrix(1,0,0,1,2938,15.0675)">
            <g transform="matrix(0.0724056,0,0,0.0724056,518.665,858.447)">
                <path d="M3221.28,659.57C3188.1,659.57 3161.2,632.672 3161.2,599.488C3161.2,566.309 3188.1,539.41 3221.28,539.41C3254.46,539.41 3281.36,566.309 3281.36,599.488C3281.36,632.672 3254.46,659.57 3221.28,659.57ZM3221.28,506.93C3170.16,506.93 3128.73,548.371 3128.73,599.488C3128.73,650.602 3170.16,692.039 3221.28,692.039C3272.4,692.039 3313.84,650.602 3313.84,599.488C3313.84,548.371 3272.4,506.93 3221.28,506.93" style="fill:rgb(254,254,254);fill-rule:nonzero;"/>
            </g>
        </g>
        <g transform="matrix(1,0,0,1,2938,15.0675)">
            <g transform="matrix(0.0724056,0,0,0.0724056,518.665,858.447)">
                <path d="M3339.12,503.281C3339.12,515.219 3329.44,524.898 3317.49,524.898C3305.55,524.898 3295.86,515.219 3295.86,503.281C3295.86,491.328 3305.55,481.648 3317.49,481.648C3329.44,481.648 3339.12,491.328 3339.12,503.281" style="fill:rgb(254,254,254);fill-rule:nonzero;"/>
            </g>
        </g>
    </g>
</svg>
