<?xml version="1.0" encoding="UTF-8" standalone="no"?>
<!DOCTYPE svg PUBLIC "-//W3C//DTD SVG 1.1//EN" "http://www.w3.org/Graphics/SVG/1.1/DTD/svg11.dtd">
<svg width="100%" height="100%" viewBox="0 0 37 37" version="1.1" xmlns="http://www.w3.org/2000/svg" xmlns:xlink="http://www.w3.org/1999/xlink" xml:space="preserve" xmlns:serif="http://www.serif.com/" style="fill-rule:evenodd;clip-rule:evenodd;stroke-linejoin:round;stroke-miterlimit:2;">
    <g transform="matrix(1,0,0,1,-2067.28,-2325.95)">
        <g transform="matrix(0.142701,0,0,0.142701,2067.28,2325.95)">
            <rect x="0" y="0" width="256" height="256" style="fill:none;"/>
        </g>
        <g transform="matrix(0.142701,0,0,0.142701,2067.28,2325.95)">
            <circle cx="128" cy="128" r="32" style="fill:rgb(20,20,20);"/>
        </g>
        <g transform="matrix(0.142701,0,0,0.142701,2067.28,2325.95)">
            <path d="M172,28L84,28C53.279,28 28,53.279 28,84L28,172C28,202.721 53.279,228 84,228L172,228C202.721,228 228,202.721 228,172L228,84C228,53.279 202.721,28 172,28ZM128,176C101.668,176 80,154.332 80,128C80,101.668 101.668,80 128,80C154.332,80 176,101.668 176,128C176,154.332 154.332,176 128,176ZM180,88C173.417,88 168,82.583 168,76C168,69.417 173.417,64 180,64C186.583,64 192,69.417 192,76C192,82.583 186.583,88 180,88Z" style="fill:rgb(20,20,20);fill-rule:nonzero;"/>
        </g>
    </g>
</svg>
