<?xml version="1.0" encoding="UTF-8" standalone="no"?>
<!DOCTYPE svg PUBLIC "-//W3C//DTD SVG 1.1//EN" "http://www.w3.org/Graphics/SVG/1.1/DTD/svg11.dtd">
<svg width="100%" height="100%" viewBox="0 0 46 46" version="1.1" xmlns="http://www.w3.org/2000/svg" xmlns:xlink="http://www.w3.org/1999/xlink" xml:space="preserve" xmlns:serif="http://www.serif.com/" style="fill-rule:evenodd;clip-rule:evenodd;stroke-linejoin:round;stroke-miterlimit:2;">
    <g transform="matrix(1,0,0,1,-2092.23,-2129.13)">
        <g transform="matrix(1,0,0,1,1362.45,1245.31)">
            <g transform="matrix(0.0747281,0,0,0.0747281,644.365,802.157)">
                <path d="M1751.53,1397.09C1751.53,1229.06 1615.31,1092.83 1447.29,1092.83C1279.22,1092.83 1143.01,1229.06 1143.01,1397.09C1143.01,1565.14 1279.22,1701.35 1447.29,1701.35C1615.31,1701.35 1751.53,1565.14 1751.53,1397.09" style="fill:rgb(15,14,12);fill-rule:nonzero;"/>
            </g>
        </g>
        <g transform="matrix(1,0,0,1,1362.45,1245.31)">
            <g transform="matrix(0.0747281,0,0,0.0747281,644.365,802.157)">
                <path d="M1381.96,1487.76C1375.99,1479.94 1372.76,1470.36 1372.77,1460.52C1372.77,1435.67 1392.93,1415.52 1417.8,1415.52C1422.44,1415.51 1427.04,1416.23 1431.46,1417.63L1431.46,1363.21C1426.3,1362.5 1421.09,1362.21 1415.88,1362.32L1415.88,1404.67C1411.46,1403.27 1406.85,1402.56 1402.22,1402.56C1377.35,1402.56 1357.19,1422.71 1357.19,1447.56C1357.19,1465.14 1367.27,1480.35 1381.96,1487.76ZM1535.61,1298.36C1524.93,1286.69 1517.91,1271.61 1516.39,1254.93L1516.39,1248.08L1501.62,1248.08C1505.34,1269.28 1518.02,1287.39 1535.61,1298.36ZM1516.39,1352.06C1537.3,1367 1562.93,1375.8 1590.6,1375.8L1590.6,1322.57C1585.36,1322.57 1580.14,1322.02 1575.02,1320.94L1575.02,1362.83C1547.34,1362.83 1521.72,1354.04 1500.8,1339.1L1500.8,1447.72C1500.8,1502.05 1456.74,1546.1 1402.37,1546.1C1382.09,1546.1 1363.24,1539.97 1347.58,1529.46C1365.45,1547.72 1390.38,1559.06 1417.95,1559.06C1472.32,1559.06 1516.39,1515.01 1516.39,1460.67L1516.39,1352.06" style="fill:rgb(237,22,82);"/>
            </g>
        </g>
        <g transform="matrix(1,0,0,1,1362.45,1245.31)">
            <g transform="matrix(0.0747281,0,0,0.0747281,644.365,802.157)">
                <path d="M1500.8,1339.1C1521.72,1354.04 1547.34,1362.83 1575.02,1362.83L1575.02,1320.94C1559.57,1317.65 1545.9,1309.58 1535.61,1298.36C1518.02,1287.39 1505.34,1269.28 1501.62,1248.08L1462.83,1248.08L1462.83,1460.67C1462.74,1485.45 1442.61,1505.52 1417.8,1505.52C1403.18,1505.52 1390.19,1498.55 1381.96,1487.76C1367.26,1480.35 1357.19,1465.14 1357.19,1447.56C1357.19,1422.71 1377.35,1402.56 1402.22,1402.56C1406.98,1402.56 1411.57,1403.3 1415.88,1404.67L1415.88,1362.32C1362.47,1363.42 1319.52,1407.03 1319.52,1460.67C1319.52,1487.45 1330.22,1511.72 1347.58,1529.46C1363.24,1539.97 1382.09,1546.1 1402.37,1546.1C1456.73,1546.1 1500.8,1502.05 1500.8,1447.72L1500.8,1339.1" style="fill:rgb(254,254,254);"/>
            </g>
        </g>
        <g transform="matrix(1,0,0,1,1362.45,1245.31)">
            <g transform="matrix(0.0747281,0,0,0.0747281,644.365,802.157)">
                <path d="M1415.88,1362.32L1415.88,1350.25C1411.41,1349.64 1406.89,1349.34 1402.38,1349.34C1348.01,1349.34 1303.94,1393.39 1303.94,1447.72C1303.94,1481.78 1321.26,1511.8 1347.58,1529.46C1330.22,1511.72 1319.53,1487.45 1319.53,1460.67C1319.53,1407.03 1362.47,1363.42 1415.88,1362.32ZM1501.62,1248.08C1501.27,1246.06 1500.99,1244.02 1500.8,1241.97L1500.8,1235.13L1447.24,1235.13L1447.24,1447.72C1447.15,1472.5 1427.03,1492.56 1402.22,1492.56C1394.93,1492.56 1388.05,1490.84 1381.96,1487.76C1390.19,1498.55 1403.18,1505.52 1417.8,1505.52C1442.61,1505.52 1462.74,1485.45 1462.83,1460.67L1462.83,1248.08L1501.62,1248.08ZM1575.02,1320.94L1575.02,1309.61C1561.09,1309.63 1547.43,1305.73 1535.61,1298.36C1546.08,1309.81 1559.85,1317.7 1575.02,1320.94" style="fill:rgb(82,197,199);"/>
            </g>
        </g>
    </g>
</svg>
