<?xml version="1.0" encoding="UTF-8" standalone="no"?>
<!DOCTYPE svg PUBLIC "-//W3C//DTD SVG 1.1//EN" "http://www.w3.org/Graphics/SVG/1.1/DTD/svg11.dtd">
<svg width="100%" height="100%" viewBox="0 0 45 45" version="1.1" xmlns="http://www.w3.org/2000/svg" xmlns:xlink="http://www.w3.org/1999/xlink" xml:space="preserve" xmlns:serif="http://www.serif.com/" style="fill-rule:evenodd;clip-rule:evenodd;stroke-linejoin:round;stroke-miterlimit:2;">
    <g transform="matrix(1,0,0,1,-3603.65,-894.89)">
        <g transform="matrix(1,0,0,1,2938,15.0675)">
            <g transform="matrix(0.0724056,0,0,0.0724056,518.665,858.447)">
                <path d="M2638.54,599.488C2638.54,641.5 2630.02,681.52 2614.63,717.922C2568.44,827.121 2460.3,903.75 2334.28,903.75L2334.27,903.75C2166.24,903.75 2030.01,767.531 2030.01,599.488C2030.01,557.48 2038.53,517.461 2053.92,481.051C2100.11,371.852 2208.24,295.219 2334.27,295.219L2334.28,295.219C2502.31,295.219 2638.54,431.449 2638.54,599.488" style="fill:rgb(15,14,12);fill-rule:nonzero;"/>
            </g>
        </g>
        <g transform="matrix(1,0,0,1,2938,15.0675)">
            <g transform="matrix(0.0724056,0,0,0.0724056,518.665,858.447)">
                <path d="M2328.4,623.781L2315.35,604.68L2214,456.398L2256.96,456.398L2339.6,576.211L2352.7,595.199L2454.35,742.57L2409.6,742.57L2328.4,623.781ZM2366.61,578.828L2353.53,559.859L2267.85,435.648L2174.68,435.648L2301.41,621.051L2314.47,640.16L2398.65,763.32L2493.87,763.32L2366.61,578.828" style="fill:rgb(251,252,252);fill-rule:nonzero;"/>
            </g>
        </g>
        <g transform="matrix(1,0,0,1,2938,15.0675)">
            <g transform="matrix(0.0724056,0,0,0.0724056,518.665,858.447)">
                <path d="M2315.35,604.68L2328.4,623.781L2314.47,640.16L2209.76,763.32L2180.21,763.32L2301.41,621.051L2315.35,604.68" style="fill:rgb(251,252,252);fill-rule:nonzero;"/>
            </g>
        </g>
        <g transform="matrix(1,0,0,1,2938,15.0675)">
            <g transform="matrix(0.0724056,0,0,0.0724056,518.665,858.447)">
                <path d="M2488.34,435.648L2366.61,578.828L2352.7,595.199L2339.6,576.211L2353.53,559.859L2459.34,435.648L2488.34,435.648" style="fill:rgb(251,252,252);fill-rule:nonzero;"/>
            </g>
        </g>
    </g>
</svg>
