<?xml version="1.0" encoding="UTF-8" standalone="no"?>
<!DOCTYPE svg PUBLIC "-//W3C//DTD SVG 1.1//EN" "http://www.w3.org/Graphics/SVG/1.1/DTD/svg11.dtd">
<svg width="100%" height="100%" viewBox="0 0 46 46" version="1.1" xmlns="http://www.w3.org/2000/svg" xmlns:xlink="http://www.w3.org/1999/xlink" xml:space="preserve" xmlns:serif="http://www.serif.com/" style="fill-rule:evenodd;clip-rule:evenodd;stroke-linejoin:round;stroke-miterlimit:2;">
    <g transform="matrix(1,0,0,1,-2158.51,-2129.13)">
        <g transform="matrix(1,0,0,1,1362.45,1245.31)">
            <g transform="matrix(0.0747281,0,0,0.0747281,644.365,802.157)">
                <path d="M2638.54,1397.09C2638.54,1229.06 2502.32,1092.83 2334.29,1092.83C2166.22,1092.83 2030.01,1229.06 2030.01,1397.09C2030.01,1565.14 2166.22,1701.35 2334.29,1701.35C2502.32,1701.35 2638.54,1565.14 2638.54,1397.09" style="fill:rgb(15,14,12);fill-rule:nonzero;"/>
            </g>
        </g>
        <g transform="matrix(1,0,0,1,1362.45,1245.31)">
            <g transform="matrix(0.0747281,0,0,0.0747281,644.365,802.157)">
                <path d="M2297.6,1452.11L2297.6,1342.08L2392.88,1397.09L2297.6,1452.11ZM2509.99,1308.81C2505.78,1293.03 2493.35,1280.6 2477.57,1276.39C2448.97,1268.72 2334.27,1268.72 2334.27,1268.72C2334.27,1268.72 2219.58,1268.72 2190.98,1276.39C2175.2,1280.6 2162.77,1293.03 2158.55,1308.81C2150.89,1337.42 2150.89,1397.09 2150.89,1397.09C2150.89,1397.09 2150.89,1456.77 2158.55,1485.37C2162.77,1501.15 2175.2,1513.58 2190.98,1517.8C2219.58,1525.46 2334.27,1525.46 2334.27,1525.46C2334.27,1525.46 2448.97,1525.46 2477.57,1517.8C2493.35,1513.58 2505.78,1501.15 2509.99,1485.37C2517.66,1456.77 2517.66,1397.09 2517.66,1397.09C2517.66,1397.09 2517.66,1337.42 2509.99,1308.81" style="fill:rgb(254,254,254);fill-rule:nonzero;"/>
            </g>
        </g>
    </g>
</svg>
